<mxfile host="app.diagrams.net" modified="2023-08-15T09:10:54.461Z" agent="Mozilla/5.0 (Macintosh; Intel Mac OS X 10_15_7) AppleWebKit/537.36 (KHTML, like Gecko) Chrome/115.0.0.0 Safari/537.36" etag="Fw1uNpWQ5Ub2smg6EH2e" version="21.6.8" type="device">
  <diagram name="Page-1" id="GXbeEJsOfLABx9MIZczj">
    <mxGraphModel dx="849" dy="604" grid="1" gridSize="10" guides="1" tooltips="1" connect="1" arrows="1" fold="1" page="1" pageScale="1" pageWidth="827" pageHeight="1169" math="0" shadow="0">
      <root>
        <mxCell id="0" />
        <mxCell id="1" parent="0" />
        <mxCell id="ct6lM43PifSCS0J-vtui-4" style="edgeStyle=orthogonalEdgeStyle;rounded=0;orthogonalLoop=1;jettySize=auto;html=1;" edge="1" parent="1" source="ct6lM43PifSCS0J-vtui-2" target="ct6lM43PifSCS0J-vtui-3">
          <mxGeometry relative="1" as="geometry" />
        </mxCell>
        <mxCell id="ct6lM43PifSCS0J-vtui-2" value="Start" style="ellipse;whiteSpace=wrap;html=1;" vertex="1" parent="1">
          <mxGeometry x="355" y="100" width="90" height="40" as="geometry" />
        </mxCell>
        <mxCell id="ct6lM43PifSCS0J-vtui-6" style="edgeStyle=orthogonalEdgeStyle;rounded=0;orthogonalLoop=1;jettySize=auto;html=1;entryX=0.5;entryY=0;entryDx=0;entryDy=0;" edge="1" parent="1" source="ct6lM43PifSCS0J-vtui-3" target="ct6lM43PifSCS0J-vtui-5">
          <mxGeometry relative="1" as="geometry" />
        </mxCell>
        <mxCell id="ct6lM43PifSCS0J-vtui-3" value="Declare&lt;br&gt;Libraries" style="shape=process;whiteSpace=wrap;html=1;backgroundOutline=1;" vertex="1" parent="1">
          <mxGeometry x="340" y="200" width="120" height="60" as="geometry" />
        </mxCell>
        <mxCell id="ct6lM43PifSCS0J-vtui-8" style="edgeStyle=orthogonalEdgeStyle;rounded=0;orthogonalLoop=1;jettySize=auto;html=1;entryX=0.5;entryY=0;entryDx=0;entryDy=0;" edge="1" parent="1" source="ct6lM43PifSCS0J-vtui-5" target="ct6lM43PifSCS0J-vtui-7">
          <mxGeometry relative="1" as="geometry" />
        </mxCell>
        <mxCell id="ct6lM43PifSCS0J-vtui-5" value="Declare&lt;br&gt;Main Function" style="shape=process;whiteSpace=wrap;html=1;backgroundOutline=1;" vertex="1" parent="1">
          <mxGeometry x="340" y="330" width="120" height="60" as="geometry" />
        </mxCell>
        <mxCell id="ct6lM43PifSCS0J-vtui-11" style="edgeStyle=orthogonalEdgeStyle;rounded=0;orthogonalLoop=1;jettySize=auto;html=1;entryX=0.5;entryY=0;entryDx=0;entryDy=0;" edge="1" parent="1" source="ct6lM43PifSCS0J-vtui-7" target="ct6lM43PifSCS0J-vtui-10">
          <mxGeometry relative="1" as="geometry" />
        </mxCell>
        <mxCell id="ct6lM43PifSCS0J-vtui-7" value="Print&lt;br&gt;Hello World" style="shape=parallelogram;perimeter=parallelogramPerimeter;whiteSpace=wrap;html=1;fixedSize=1;" vertex="1" parent="1">
          <mxGeometry x="340" y="470" width="120" height="60" as="geometry" />
        </mxCell>
        <mxCell id="ct6lM43PifSCS0J-vtui-10" value="Stop" style="ellipse;whiteSpace=wrap;html=1;" vertex="1" parent="1">
          <mxGeometry x="355" y="585" width="90" height="40" as="geometry" />
        </mxCell>
      </root>
    </mxGraphModel>
  </diagram>
</mxfile>
